<svg width="20" height="20" viewBox="0 0 20 20" fill="none" xmlns="http://www.w3.org/2000/svg">
<path fill-rule="evenodd" clip-rule="evenodd" d="M14.5093 3.90648C14.4306 4.2012 14.2012 4.42924 13.9065 4.50925L13.237 4.69062C12.921 4.77463 12.921 5.22404 13.237 5.30938L13.9065 5.48941C14.2012 5.56809 14.4306 5.7988 14.5093 6.09218L14.6906 6.76163C14.7746 7.07901 15.224 7.07901 15.3094 6.76163L15.4894 6.09218C15.5681 5.7988 15.7988 5.56809 16.0935 5.48941L16.763 5.30938C17.079 5.22404 17.079 4.77463 16.763 4.69062L16.0935 4.50925C15.7988 4.42924 15.5681 4.2012 15.4894 3.90648L15.3094 3.23704C15.224 2.92099 14.7746 2.92099 14.6906 3.23704L14.5093 3.90648ZM6.99375 8.65327C7.80357 8.43604 8.43604 7.80357 8.65327 6.99375L9.14824 5.15274C9.38335 4.28242 10.618 4.28242 10.8518 5.15274L11.3481 6.99375C11.5653 7.80357 12.1978 8.43604 13.0062 8.65327L14.8473 9.14824C15.7176 9.38335 15.7176 10.618 14.8473 10.8531L13.0062 11.3481C12.1978 11.5653 11.5653 12.1978 11.3481 13.0062L10.8518 14.8473C10.618 15.7176 9.38335 15.7176 9.14824 14.8473L8.65327 13.0062C8.43604 12.1978 7.80357 11.5653 6.99375 11.3481L5.15274 10.8531C4.28242 10.618 4.28242 9.38335 5.15274 9.14824L6.99375 8.65327ZM3.90618 14.5101C4.2008 14.4301 4.43143 14.2008 4.51008 13.9062L4.69005 13.237C4.77404 12.921 5.2233 12.921 5.30995 13.237L5.48859 13.9062C5.56857 14.2008 5.79787 14.4301 6.09248 14.5101L6.76304 14.6901C7.07899 14.774 7.07899 15.2233 6.76304 15.3099L6.09248 15.4886C5.79787 15.5686 5.56857 15.7979 5.48859 16.0925L5.30995 16.7617C5.2233 17.079 4.77404 17.079 4.69005 16.7617L4.51008 16.0925C4.43143 15.7979 4.2008 15.5686 3.90618 15.4886L3.23696 15.3099C2.92101 15.2233 2.92101 14.774 3.23696 14.6901L3.90618 14.5101ZM5.75 5.75C5.75 6.164 5.414 6.5 5 6.5C4.586 6.5 4.25 6.164 4.25 5.75C4.25 5.336 4.586 5 5 5C5.414 5 5.75 5.336 5.75 5.75ZM14.75 15.5C15.44 15.5 16 14.9417 16 14.25C16 13.56 15.44 13 14.75 13C14.0583 13 13.5 13.56 13.5 14.25C13.5 14.9417 14.0583 15.5 14.75 15.5Z" fill="#4D97FF"/>
<mask id="mask0" mask-type="alpha" maskUnits="userSpaceOnUse" x="3" y="3" width="14" height="14">
<path fill-rule="evenodd" clip-rule="evenodd" d="M14.5093 3.90648C14.4306 4.2012 14.2012 4.42924 13.9065 4.50925L13.237 4.69062C12.921 4.77463 12.921 5.22404 13.237 5.30938L13.9065 5.48941C14.2012 5.56809 14.4306 5.7988 14.5093 6.09218L14.6906 6.76163C14.7746 7.07901 15.224 7.07901 15.3094 6.76163L15.4894 6.09218C15.5681 5.7988 15.7988 5.56809 16.0935 5.48941L16.763 5.30938C17.079 5.22404 17.079 4.77463 16.763 4.69062L16.0935 4.50925C15.7988 4.42924 15.5681 4.2012 15.4894 3.90648L15.3094 3.23704C15.224 2.92099 14.7746 2.92099 14.6906 3.23704L14.5093 3.90648ZM6.99375 8.65327C7.80357 8.43604 8.43604 7.80357 8.65327 6.99375L9.14824 5.15274C9.38335 4.28242 10.618 4.28242 10.8518 5.15274L11.3481 6.99375C11.5653 7.80357 12.1978 8.43604 13.0062 8.65327L14.8473 9.14824C15.7176 9.38335 15.7176 10.618 14.8473 10.8531L13.0062 11.3481C12.1978 11.5653 11.5653 12.1978 11.3481 13.0062L10.8518 14.8473C10.618 15.7176 9.38335 15.7176 9.14824 14.8473L8.65327 13.0062C8.43604 12.1978 7.80357 11.5653 6.99375 11.3481L5.15274 10.8531C4.28242 10.618 4.28242 9.38335 5.15274 9.14824L6.99375 8.65327ZM3.90618 14.5101C4.2008 14.4301 4.43143 14.2008 4.51008 13.9062L4.69005 13.237C4.77404 12.921 5.2233 12.921 5.30995 13.237L5.48859 13.9062C5.56857 14.2008 5.79787 14.4301 6.09248 14.5101L6.76304 14.6901C7.07899 14.774 7.07899 15.2233 6.76304 15.3099L6.09248 15.4886C5.79787 15.5686 5.56857 15.7979 5.48859 16.0925L5.30995 16.7617C5.2233 17.079 4.77404 17.079 4.69005 16.7617L4.51008 16.0925C4.43143 15.7979 4.2008 15.5686 3.90618 15.4886L3.23696 15.3099C2.92101 15.2233 2.92101 14.774 3.23696 14.6901L3.90618 14.5101ZM5.75 5.75C5.75 6.164 5.414 6.5 5 6.5C4.586 6.5 4.25 6.164 4.25 5.75C4.25 5.336 4.586 5 5 5C5.414 5 5.75 5.336 5.75 5.75ZM14.75 15.5C15.44 15.5 16 14.9417 16 14.25C16 13.56 15.44 13 14.75 13C14.0583 13 13.5 13.56 13.5 14.25C13.5 14.9417 14.0583 15.5 14.75 15.5Z" fill="white"/>
</mask>
<g mask="url(#mask0)">
<rect width="20" height="20" fill="#4D97FF"/>
</g>
</svg>
